<?xml version="1.0" encoding="utf-8"?>
<!-- Generator: Adobe Illustrator 18.1.1, SVG Export Plug-In . SVG Version: 6.00 Build 0)  -->
<svg version="1.1" id="Layer_1" xmlns="http://www.w3.org/2000/svg" xmlns:xlink="http://www.w3.org/1999/xlink" x="0px" y="0px"
	 viewBox="0 0 246 256" enable-background="new 0 0 246 256" xml:space="preserve">
<path fill="#AFBDC4" d="M61.4,31.1l21.1-17.7l40.1-3.4l15.6,8.8l17-7.7l18.5,6.2L187,32.5l-13.6,10.2l-0.7,8.2l17,15.6l8.2,31.2
	l-22.4,42.1l-27.8,19l-55.7,6.1l-42.1-14.3L22,122.2l-0.7-40.1l6.1-25.8L16,49.6L10.5,36l9.9-13l17.3-1.9l14.9,4.6L61.4,31.1z
	 M27.4,84.8l2,34.6l24.5,26.5L94,160.9l53-6.8l24.5-19l19.7-39.4l-8.2-27.8l-20.4-16.3l-9.9-10.6l-7-8.4L132,27.1l-12.2-9.5
	l-35.3,2.7l-21.1,17l-20.8,9.8l-9.1,13.2L27.4,84.8z"/>
<g>
	<polygon fill="#AFBDC4" points="91.5,97.6 99,101.7 94.9,109.8 86.1,110.5 84.8,104.4 	"/>
	<polygon fill="#AFBDC4" points="93.6,106.4 95.6,118.7 106.5,123.4 112.6,117.3 116,121.4 108.5,128.9 94.9,123.4 89.5,131.6 
		76.6,126.8 80,121.4 86.8,126.1 90.2,120 89.8,108.1 	"/>
</g>
<path fill="#AFBDC4" d="M112.3,65.1l7.7-5.5l15.4,7.8l9,18l-10.4,18.9l-20.9-7.1l-8.2-20.3L112.3,65.1z M111.4,71.4l1.8,7.4
	l11.9,2.5l1.8-5.9v-5l-10.2-3.4L111.4,71.4z"/>
<path fill="#AFBDC4" d="M61.7,67.6l15.6,8.2l-4.1,23.8l-14.9,13.6L35.9,97.5l7.5-18.3L61.7,67.6z M56.5,75.6l-0.3,6.5l7.3,6.2
	l7.6-6.8L69,75l-6.6-2.2L56.5,75.6z"/>
<path fill="#AFBDC4" d="M45.5,148.1"/>
<polygon fill="#AFBDC4" points="104,232.3 111.2,231.9 131.6,232.5 145.3,230.5 144.5,226.9 142,224.4 130.4,227.6 112.4,228.8 
	105.4,228.2 "/>
<path fill="#AFBDC4" d="M101.4,246.6l-27.9-3.6l-17.9-18.6l10-23.6l25.8-10.7l20.8,16.5l2.2,23.6L101.4,246.6z M79.9,233l14.3,6.4
	l6.4-3.6l2.1-13.6l-10.7-2.9l-9.3,5L79.9,233z M90.1,201.4l0.7,8.6l7.9,0l2.9-7.2L90.1,201.4z M85.4,212.3l-3.9-6.4l-8.1,7l5.1,4
	L85.4,212.3z M66.5,216.3l-3.7,7.5l8.3,3.7l3.1-7.6L66.5,216.3z"/>
<path fill="#AFBDC4" d="M147.6,237.5l-19.7-23.2l-0.6-17.5l27.2-18l34.9,2.7l10.1,30.3l-20.9,26L147.6,237.5z M145.6,223.5l4.7,8
	l10.6,0.1l13.8-0.4l3.8-9.5l-3.7-4.8l-14.2-4.6l-11.7,4.1L145.6,223.5z M183.3,211.6l7-7.4l-3.6-10.1l-7.4-0.1l-5.4,12.1
	L183.3,211.6z M166.4,203l0.1-13.8l-13.3,2.5l3.1,11.7L166.4,203z M144.8,197l-8,5.2l7.9,7.5l5.9-4.2L144.8,197z"/>
<path fill="#AFBDC4" d="M188.5,115.1l35.2,17.9l13.6,19.8v17.3L220,182.5l-22.9-6.8l-27.6,23.1l-11.9-23.9l-38.9-1.6l-39.8,9.9
	L64.2,222l-24.7-21.6l-21.6-3.1l-13-12.4v-25.3l12.4-7.4l22.9,3.1l10.5-6.8l41.3,16.5l55.7-6.1l19.2-15.9L188.5,115.1z M8,161.2
	l-0.4,20.2l7.8,8.2l6.2-5.4v-23.5l-3.3-5.4L8,161.2z M223.5,154.2l-12.4,18.5l8.2,4.9l13.6-11.9v-11.5H223.5z"/>
</svg>
